<?xml version="1.0" standalone="no"?>
<!DOCTYPE svg PUBLIC "-//W3C//DTD SVG 20010904//EN"
 "http://www.w3.org/TR/2001/REC-SVG-20010904/DTD/svg10.dtd">
<svg version="1.0" xmlns="http://www.w3.org/2000/svg"
 width="600.000000pt" height="600.000000pt" viewBox="0 0 600.000000 600.000000"
 preserveAspectRatio="xMidYMid meet">
<metadata>
Created by potrace 1.14, written by Peter Selinger 2001-2017
</metadata>
<g transform="translate(0.000000,600.000000) scale(0.100000,-0.100000)"
fill="#000000" stroke="none">
<path d="M2968 4975 c-2 -1 -50 -5 -108 -9 -58 -3 -116 -8 -130 -10 -14 -2
-45 -7 -70 -11 -227 -35 -486 -136 -686 -266 -185 -121 -388 -313 -520 -494
-183 -250 -284 -500 -340 -845 -12 -75 -15 -1809 -3 -1860 35 -151 149 -280
289 -328 225 -77 483 53 550 277 18 63 19 107 23 936 3 788 5 877 21 945 42
179 139 353 268 481 89 89 102 99 187 154 170 109 345 156 561 150 126 -3 149
-5 230 -24 346 -78 664 -399 739 -746 6 -27 14 -63 17 -80 4 -16 8 -408 9
-870 1 -462 5 -856 8 -877 25 -144 146 -294 279 -343 74 -28 220 -30 289 -5
145 53 266 187 288 319 3 20 6 423 6 896 0 761 -5 982 -20 1027 -2 7 -6 29 -9
48 -25 165 -108 396 -201 560 -104 185 -305 424 -460 546 -27 21 -57 45 -65
53 -29 28 -206 139 -285 179 -129 66 -327 135 -445 156 -14 2 -41 7 -60 10
-19 3 -48 8 -65 11 -16 3 -82 8 -145 11 -63 3 -123 7 -132 8 -9 2 -18 3 -20 1z"/>
</g>
</svg>
